<?xml version="1.0" encoding="UTF-8"?>
<svg id="Layer_1" xmlns="http://www.w3.org/2000/svg" version="1.1" viewBox="0 0 177 46.2">
  <!-- Generator: Adobe Illustrator 29.0.1, SVG Export Plug-In . SVG Version: 2.1.0 Build 192)  -->
  <defs>
    <style>
      .st0 {
        fill: #fff;
      }

      .st1 {
        fill: #3cdf90;
      }
    </style>
  </defs>
  <path class="st1" d="M11.7,13C5.9,19.7,1.7,29.3,2.7,42.9c0,0,16.3-31.7,44.2-27h0C39.1,3.3,21.3,1.7,11.7,13h0Z"/>
  <path class="st1" d="M22.2,27.5s9.5-11.6,24.6-8.9l-1.8,22.2s-7.4-21.3-22.8-13.3h0Z"/>
  <g>
    <path class="st0" d="M83.1,19.3v12.4c-.8.8-1.6,1.4-2.4,1.9s-1.8.9-2.7,1.2c-.9.3-1.9.5-2.9.6-1,.1-2,.2-3,.2s-2.6-.2-3.9-.5-2.4-.8-3.5-1.5c-1.1-.6-2.1-1.4-3-2.3-.9-.9-1.7-1.9-2.3-2.9s-1.1-2.2-1.5-3.5-.5-2.5-.5-3.9.2-2.6.5-3.9.8-2.4,1.5-3.5,1.4-2.1,2.3-2.9c.9-.9,1.9-1.6,3-2.3s2.3-1.1,3.5-1.5c1.2-.3,2.5-.5,3.9-.5s2.1.1,3.2.4,2.1.6,3.1,1.1c1,.5,1.9,1.1,2.9,1.8s1.8,1.5,2.6,2.4l-1.7,1.7c-.8.9-1.9,1.3-3.1,1.3s-1.7-.2-2.4-.7c-.7-.4-1.4-.8-2.1-1-.7-.3-1.5-.4-2.4-.4s-2.1.2-3.1.6-1.8,1-2.6,1.7c-.7.7-1.3,1.6-1.8,2.6-.4,1-.7,2-.7,3.1s.2,2.2.7,3.2,1.1,1.8,1.8,2.5,1.6,1.3,2.7,1.7,2.1.6,3.2.6,1.5,0,2.3-.2,1.4-.4,2.1-.7v-2.8c-.6,0-1.2-.1-1.8-.3s-1-.5-1.4-.8c-.4-.3-.7-.7-.9-1.2-.2-.5-.3-1-.3-1.5v-2.3h10.9,0Z"/>
    <path class="st0" d="M95.7,6.7v28.6h-6.5V6.7s6.5,0,6.5,0Z"/>
    <path class="st0" d="M99.3,14.4h4.3c.4,0,.8,0,1.2.2.4.1.8.3,1.1.5.4.2.7.5.9.8.3.3.5.7.6,1l2.6,6.5c.2.6.4,1.1.4,1.5,0,.4.1.7.1,1s0,.3,0,.5c0,0,0,.1,0,.2l3.8-9.7c.3-.8.8-1.4,1.5-1.8s1.5-.7,2.3-.7h4.3l-11.4,26.1c-.1.4-.4.8-.6,1.1s-.6.6-.9.8c-.3.2-.7.4-1.1.5-.4.1-.8.2-1.2.2h-4.3l4.4-10.3-8-18.4h0Z"/>
    <path class="st0" d="M144.8,35.3h-5.2c0-.1-.2-.3-.2-.4,0-.1-.1-.3-.2-.6s-.1-.5-.1-.8h-.2c-.2.4-.4.6-.7.8-.3.2-.7.5-1.1.6-.4.2-.8.4-1.3.5s-.9.2-1.3.2h-.1c-1.5,0-2.8-.3-4.1-.9-1.3-.6-2.4-1.3-3.4-2.3-1-1-1.7-2.1-2.3-3.4-.6-1.3-.8-2.7-.8-4.1s.3-2.9.8-4.2c.6-1.3,1.3-2.5,2.3-3.4,1-1,2.1-1.7,3.4-2.3,1.3-.6,2.7-.8,4.2-.8s1.4.1,2.1.4c.7.3,1.3.6,1.8.9V6.7h6.5v28.6h0ZM134.5,29c.8,0,1.6-.2,2.3-.7s1.2-1,1.5-1.7v-3.5c-.3-.7-.9-1.3-1.5-1.8s-1.4-.7-2.3-.7-1.1.1-1.6.3c-.5.2-1,.5-1.3.9-.4.4-.7.8-.9,1.3-.2.5-.3,1.1-.3,1.6s.1,1.1.3,1.6c.2.5.5,1,.9,1.3.4.4.8.7,1.3.9s1.1.3,1.6.3h0Z"/>
    <path class="st0" d="M169.5,23.7c0,.6-.1,1.2-.4,1.6-.3.4-.6.8-1,1.1-.4.3-.8.5-1.3.6-.5.1-.9.2-1.3.2h-10.3c.1.5.4.9.7,1.3.3.3.6.6,1.1.9s1.1.4,1.8.4.8,0,1.1-.2c.4-.1.7-.2,1-.4s.7-.3,1.1-.4.8-.2,1.2-.2c.6,0,1.2.1,1.6.3.5.2.9.5,1.3.9l1.7,1.7c-1.3,1.4-2.7,2.4-4.2,3.1-1.5.7-3.1,1-4.7,1s-2.9-.3-4.2-.8c-1.3-.6-2.5-1.3-3.4-2.3s-1.8-2.1-2.3-3.4c-.6-1.3-.9-2.7-.9-4.2s.3-2.9.9-4.2c.6-1.3,1.3-2.5,2.3-3.4,1-1,2.1-1.7,3.4-2.3,1.3-.6,2.7-.8,4.2-.8s2.4.2,3.6.7,2.2,1,3.1,1.8c.9.8,1.7,1.6,2.4,2.7.7,1,1.1,2.1,1.4,3.2,0,.2,0,.4,0,.7s0,.5,0,.6h0ZM162.8,22.5c-.2-.5-.5-.9-.9-1.3-.3-.3-.7-.6-1.2-.9-.5-.3-1.1-.4-1.8-.4s-1.4.2-1.9.5c-.5.3-.9.7-1.2,1-.3.4-.6.9-.8,1.5,0,0,.2-.1.3-.2,0,0,.2,0,.3-.1.1,0,.2,0,.4,0h6.9Z"/>
  </g>
</svg>